<svg width="24" height="24" viewBox="0 0 24 24" fill="none" xmlns="http://www.w3.org/2000/svg">
<path d="M9.77428 5.42264H9.77427V5.42483V7.23807C9.77427 8.19827 9.52192 8.85312 9.10523 9.26981C8.68854 9.6865 8.03368 9.93886 7.07349 9.93886H5.26024C4.30005 9.93886 3.64519 9.6865 3.2285 9.26981C2.81181 8.85312 2.55946 8.19827 2.55946 7.23807V5.42483C2.55946 4.46464 2.8118 3.81006 3.22932 3.39346C3.64702 2.9767 4.30426 2.72404 5.26979 2.72404H7.08303C8.0434 2.72404 8.6979 2.97648 9.1132 3.39271C9.52832 3.80875 9.77868 4.46285 9.77428 5.42264ZM9.77427 16.3403V16.3425V18.1557C9.77427 19.1159 9.52192 19.7708 9.10523 20.1875C8.68854 20.6042 8.03368 20.8565 7.07349 20.8565H5.26024C4.30005 20.8565 3.64547 20.6042 3.22888 20.1867C2.81212 19.769 2.55946 19.1117 2.55946 18.1462V16.3329C2.55946 15.3727 2.8118 14.7182 3.22932 14.3016C3.64702 13.8848 4.30426 13.6322 5.26979 13.6322H7.08303C8.0434 13.6322 8.69762 13.8846 9.11283 14.3016C9.52802 14.7187 9.77869 15.3752 9.77427 16.3403ZM16.1779 2.72404H17.9911C18.9513 2.72404 19.6062 2.9764 20.0229 3.39309C20.4396 3.80978 20.6919 4.46463 20.6919 5.42483V7.23807C20.6919 8.19827 20.4396 8.85312 20.0229 9.26981C19.6062 9.6865 18.9513 9.93886 17.9911 9.93886H16.1779C15.2177 9.93886 14.5628 9.6865 14.1462 9.26981C13.7295 8.85312 13.4771 8.19827 13.4771 7.23807V5.42483C13.4771 4.46463 13.7295 3.80978 14.1462 3.39309C14.5628 2.9764 15.2177 2.72404 16.1779 2.72404ZM16.1779 13.6322H17.9911C18.9513 13.6322 19.6062 13.8845 20.0229 14.3012C20.4396 14.7179 20.6919 15.3727 20.6919 16.3329V18.1462C20.6919 19.1064 20.4396 19.7612 20.0229 20.1779C19.6062 20.5946 18.9513 20.847 17.9911 20.847H16.1779C15.2177 20.847 14.5628 20.5946 14.1462 20.1779C13.7295 19.7612 13.4771 19.1064 13.4771 18.1462V16.3329C13.4771 15.3727 13.7295 14.7179 14.1462 14.3012C14.5628 13.8845 15.2177 13.6322 16.1779 13.6322Z" fill="white" stroke="#475569" stroke-width="0.95434"/>
</svg>
