<svg width="54" height="52" viewBox="0 0 54 52" fill="none" xmlns="http://www.w3.org/2000/svg">
<g id="noun-calorie-4197914" clip-path="url(#clip0_1_448)">
<g id="Group">
<path id="Vector" d="M26.5382 22.6889C23.6825 22.6889 21.0394 23.5987 18.8675 25.1316C18.7605 24.837 18.6885 24.5294 18.6885 24.2152C18.6885 23.125 19.3353 22.1429 20.3384 21.7135L20.7325 21.5441C22.5223 20.7762 23.9352 19.3084 24.6485 17.5172C25.3299 18.008 25.7531 18.8039 25.7531 19.6761V21.1189H27.3231V19.6761C27.3231 17.8533 26.1613 16.2411 24.4314 15.6649L23.6275 15.3964L23.4218 16.2188C22.9893 17.9473 21.753 19.3996 20.113 20.1019L19.7189 20.2713C18.1397 20.9483 17.1184 22.4971 17.1184 24.2152C17.1184 24.8792 17.2755 25.5427 17.5714 26.1337L17.5862 26.1642C14.8961 28.608 13.1934 32.1208 13.1934 36.0331C13.1934 43.3913 19.1796 49.3778 26.5381 49.3778C33.8963 49.3778 39.8827 43.3916 39.8827 36.0331C39.8827 28.6749 33.8963 22.6884 26.5381 22.6884L26.5382 22.6889ZM26.5382 47.8075C20.0455 47.8075 14.7633 42.5255 14.7633 36.0326C14.7633 29.5398 20.0453 24.2577 26.5382 24.2577C33.031 24.2577 38.3131 29.5398 38.3131 36.0326C38.3131 42.5255 33.031 47.8075 26.5382 47.8075Z" fill="white"/>
<path id="Vector_2" d="M25.7529 44.6681H27.3229V46.2381H25.7529V44.6681Z" fill="white"/>
<path id="Vector_3" d="M30.9782 41.5862L32.0883 40.4761L30.9319 39.3197C31.4703 38.6015 31.8356 37.7489 31.9696 36.8203L33.6024 36.8206V35.2506H31.9696C31.8362 34.3219 31.4703 33.4693 30.9319 32.7512L32.0883 31.5948L30.9782 30.4846L29.8217 31.641C29.1036 31.1026 28.251 30.7374 27.3223 30.6033V28.9705L25.7523 28.9705V30.6033C24.8236 30.7367 23.9711 31.1026 23.2529 31.641L22.0965 30.4846L20.9863 31.5948L22.1428 32.7512C21.6043 33.4693 21.2391 34.3219 21.105 35.2506H19.473V36.8206H21.1057C21.2392 37.7493 21.6051 38.6018 22.1435 39.32L20.9871 40.4764L22.0972 41.5866L23.2536 40.4302C23.9718 40.9686 24.8243 41.3338 25.753 41.4679V43.1007H27.323V41.4679C28.2517 41.3345 29.1043 40.9686 29.8224 40.4302L30.9782 41.5862ZM26.5377 39.9606C24.3734 39.9606 22.6127 38.1999 22.6127 36.0356C22.6127 33.8714 24.3734 32.1106 26.5377 32.1106C28.702 32.1106 30.4627 33.8714 30.4627 36.0356C30.4627 38.1999 28.702 39.9606 26.5377 39.9606Z" fill="white"/>
<path id="Vector_4" d="M32.0863 42.6977L33.1965 41.5876L34.3066 42.6977L33.1965 43.8079L32.0863 42.6977Z" fill="white"/>
<path id="Vector_5" d="M35.1731 35.2475H36.7431V36.8175H35.1731V35.2475Z" fill="white"/>
<path id="Vector_6" d="M32.0887 29.3745L33.1989 28.2643L34.3091 29.3745L33.1989 30.4846L32.0887 29.3745Z" fill="white"/>
<path id="Vector_7" d="M25.7529 25.8302H27.3229V27.4002H25.7529V25.8302Z" fill="white"/>
<path id="Vector_8" d="M18.7676 29.3727L19.8777 28.2626L20.9879 29.3727L19.8777 30.4829L18.7676 29.3727Z" fill="white"/>
<path id="Vector_9" d="M16.3341 35.2493H17.9041V36.8193H16.3341V35.2493Z" fill="white"/>
<path id="Vector_10" d="M18.7669 42.6942L19.8771 41.584L20.9872 42.6942L19.8771 43.8044L18.7669 42.6942Z" fill="white"/>
<path id="Vector_11" d="M48.8859 30.457L48.6448 30.0959C47.0216 27.6623 46.1635 24.8286 46.1635 21.9033V20.8138L45.1306 21.1584C43.4131 21.7308 42.0214 22.938 41.2121 24.5567L40.7522 25.4768L42.1565 26.1794L42.6164 25.2594C43.0739 24.344 43.7742 23.6005 44.6371 23.096C44.8411 25.9072 45.765 28.6075 47.3387 30.9669L47.5798 31.3281C48.7068 33.0208 49.3035 34.9893 49.3035 37.0226C49.3035 41.2734 46.6433 45.1518 42.6846 46.6747L39.6012 47.8599L40.1657 49.3253L43.2484 48.14C47.8089 46.3849 50.8735 41.9173 50.8735 37.0227C50.8735 34.6787 50.1859 32.4094 48.8857 30.4571L48.8859 30.457Z" fill="white"/>
<path id="Vector_12" d="M45.9284 31.6795C45.6081 31.1874 45.3122 30.6819 45.0485 30.1746L43.6568 30.8999C43.9431 31.4511 44.2652 32.0004 44.6122 32.5351L45.9284 31.6795Z" fill="white"/>
<path id="Vector_13" d="M44.6579 43.6933C46.6124 42.0167 47.7334 39.591 47.7334 37.0399C47.7334 35.7525 47.4581 34.5093 46.9155 33.3457L45.4923 34.0096C45.9381 34.9644 46.1634 35.9832 46.1634 37.0399C46.1634 39.1326 45.242 41.1234 43.6349 42.5017L44.6579 43.6933Z" fill="white"/>
<path id="Vector_14" d="M3.77399 37.0244C3.77399 34.9915 4.37072 33.0226 5.49765 31.3302L5.73874 30.9691C7.31358 28.6086 8.23744 25.9093 8.44042 23.0982C9.30395 23.603 10.0032 24.3462 10.4611 25.2615L10.921 26.1816L12.3253 25.4789L11.8654 24.5588C11.0561 22.9395 9.66444 21.7329 7.94693 21.1606L6.91395 20.8156V21.9051C6.91395 24.8315 6.0559 27.6646 4.43272 30.0988L4.19163 30.4599C2.89149 32.4113 2.20389 34.6805 2.20389 37.0245C2.20389 41.9197 5.26842 46.3877 9.82992 48.1418L12.9117 49.327L13.4761 47.8617L10.3934 46.6764C6.43412 45.1534 3.77397 41.2748 3.77397 37.0244L3.77399 37.0244Z" fill="white"/>
<path id="Vector_15" d="M9.4212 30.9018L8.02949 30.1765C7.76577 30.6837 7.46981 31.1892 7.14954 31.6813L8.4668 32.537C8.81283 32.0023 9.13485 31.4529 9.4212 30.9018V30.9018Z" fill="white"/>
<path id="Vector_16" d="M5.34419 37.0396C5.34419 39.5908 6.46532 42.0164 8.4197 43.693L9.44232 42.5013C7.83561 41.123 6.91412 39.1322 6.91412 37.0396C6.91412 35.983 7.13944 34.9634 7.58458 34.0096L6.16135 33.3457C5.6195 34.5086 5.34412 35.7521 5.34412 37.0395L5.34419 37.0396Z" fill="white"/>
<path id="Vector_17" d="M32.7774 14.4883L32.4523 13.5134L31.5974 14.084C29.9046 15.213 28.8936 17.1026 28.8936 19.1363V19.5475H30.4636V19.1363C30.4636 17.95 30.9266 16.8307 31.7346 16.0004C32.4184 17.2343 33.5189 18.1911 34.8691 18.6959L36.5677 19.33C37.6117 19.7203 38.3133 20.7313 38.3133 21.8932C38.3133 22.6374 38.0259 23.3353 37.5026 23.8572L36.9735 24.3864L38.0836 25.4965L38.6117 24.9684C39.4321 24.1501 39.8833 23.0582 39.8833 21.8469C39.8833 20.08 38.7719 18.4778 37.1171 17.8602L35.4192 17.2261C34.1647 16.7562 33.2014 15.7593 32.7775 14.4883L32.7774 14.4883Z" fill="white"/>
<path id="Vector_18" d="M13.6603 23.6837L14.3277 24.1282L15.1981 22.8219L14.5307 22.3774C13.6936 21.8188 13.1926 20.8846 13.1926 19.8767C13.1926 18.9356 13.6415 18.0358 14.3929 17.4723L14.5853 17.3286C15.4142 16.7062 16.0736 15.9078 16.525 14.9893C16.9135 15.6598 17.1176 16.4163 17.1176 17.1959H18.6876C18.6876 16.013 18.3416 14.8676 17.6852 13.884L16.0963 11.5009L15.3693 13.6768C15.0496 14.6377 14.4532 15.4649 13.6456 16.0719L13.4532 16.2156C12.3071 17.075 11.6225 18.4437 11.6225 19.8765C11.6225 21.4102 12.3849 22.8334 13.6603 23.6835L13.6603 23.6837Z" fill="white"/>
<path id="Vector_19" d="M21.6802 13.7561L20.7635 14.1056L21.3232 15.5727L22.2392 15.2233C23.4018 14.7812 24.1827 13.6467 24.1827 12.4025C24.1827 11.6748 23.8875 10.9635 23.3233 10.4025C22.872 9.95187 22.6127 9.32878 22.6127 8.65584C22.6127 8.16063 22.7588 7.68089 23.0328 7.26861L23.335 6.81798C23.8892 5.98703 24.1827 5.01926 24.1827 3.99005C24.1827 3.39505 24.0774 2.79834 23.8758 2.23725C24.762 2.44371 25.4951 3.09529 25.7929 3.98628L27.2812 3.48935C26.7051 1.7599 25.0918 0.597595 23.2701 0.597595L21.3421 0.597595L22.2306 2.37401C22.481 2.87368 22.6127 3.43272 22.6127 4.0198C22.6127 4.70808 22.411 5.37481 22.0293 5.94608L21.7272 6.39671C21.28 7.06785 21.043 7.84978 21.043 8.69208C21.043 9.74323 21.47 10.7714 22.2646 11.5635C22.4858 11.783 22.6127 12.09 22.6127 12.4024C22.6127 12.9998 22.2375 13.543 21.6802 13.756L21.6802 13.7561Z" fill="white"/>
<path id="Vector_20" d="M30.8625 2.77495C31.3059 3.87781 32.0391 4.83231 32.999 5.55318L33.1866 5.69379C33.9404 6.25794 34.3893 7.15749 34.3893 8.09891C34.3893 9.10678 33.8886 10.0417 33.0508 10.6007L32.3834 11.0451L33.2538 12.3514L33.9212 11.907C35.1973 11.0558 35.9593 9.63258 35.9593 8.09891C35.9593 6.66646 35.2748 5.2974 34.1273 4.43623L33.9397 4.29562C33.1297 3.68792 32.533 2.86002 32.2126 1.89912L31.6499 0.212158L30.1512 1.33636C28.3813 2.66283 27.3247 4.77542 27.3247 6.98808H28.8947C28.8947 5.36565 29.6255 3.81206 30.8625 2.77504L30.8625 2.77495Z" fill="white"/>
<path id="Vector_21" d="M39.2974 12.4551L42.4837 14.4459C43.3126 14.9644 43.8078 15.8578 43.8078 16.8359C43.8078 17.7804 43.3383 18.6562 42.5526 19.1799L41.8023 19.6806L42.6727 20.9869L43.423 20.4862C44.647 19.6714 45.3778 18.3072 45.3778 16.8359C45.3778 15.3139 44.6069 13.9222 43.3157 13.1149L40.1287 11.1234C39.4837 10.7201 39.0982 10.0246 39.0982 9.26263C39.0982 8.92278 39.1781 8.5836 39.3297 8.28075L39.8006 7.34039L38.3962 6.6377L37.9254 7.57805C37.6657 8.0983 37.5282 8.68092 37.5282 9.26264C37.5282 10.5696 38.1901 11.7634 39.2974 12.4551L39.2974 12.4551Z" fill="white"/>
<path id="Vector_22" d="M17.427 7.62307C17.7339 7.93069 17.9037 8.34051 17.9037 8.77536C17.9037 9.0264 17.844 9.27915 17.7318 9.50378L17.2013 10.5642L18.6057 11.2668L19.1362 10.2054C19.3567 9.76336 19.4737 9.26989 19.4737 8.77605C19.4737 7.92108 19.1407 7.11824 18.5371 6.5136L18.2284 6.20495C18.0189 5.99507 17.9037 5.71694 17.9037 5.42029C17.9037 5.12365 18.0189 4.84586 18.2288 4.6353L19.2438 3.62022L18.1337 2.51007L17.1186 3.52549C16.6124 4.03168 16.3336 4.70456 16.3336 5.42026C16.3336 6.13632 16.6124 6.80951 17.1186 7.31503L17.427 7.62307Z" fill="white"/>
</g>
</g>
<defs>
<clipPath id="clip0_1_448">
<rect width="53.464" height="51.7858" fill="white" transform="translate(0.128204 0.209045)"/>
</clipPath>
</defs>
</svg>
