<svg width="742" height="149" viewBox="0 0 742 149" fill="none" xmlns="http://www.w3.org/2000/svg">
<path d="M16 54.5C16 58.9183 12.4183 62.5 8 62.5C3.58172 62.5 0 58.9183 0 54.5L0 50.5C0 46.0817 3.58172 42.5 8 42.5C12.4183 42.5 16 46.0817 16 50.5L16 54.5Z" fill="#3629B7"/>
<rect y="64.5" width="16" height="20" rx="8" fill="#FBB8FF"/>
<path d="M0 94.5C0 90.0817 3.58172 86.5 8 86.5C12.4183 86.5 16 90.0817 16 94.5V98.5C16 102.918 12.4183 106.5 8 106.5C3.58172 106.5 0 102.918 0 98.5V94.5Z" fill="#FF4267"/>
<path d="M132 48C132 52.4183 128.418 56 124 56C119.582 56 116 52.4183 116 48L116 37C116 32.5817 119.582 29 124 29C128.418 29 132 32.5817 132 37L132 48Z" fill="#3629B7"/>
<rect x="116" y="58" width="16" height="32" rx="8" fill="#FBB8FF"/>
<path d="M116 100C116 95.5817 119.582 92 124 92C128.418 92 132 95.5817 132 100V112C132 116.418 128.418 120 124 120C119.582 120 116 116.418 116 112V100Z" fill="#FF4267"/>
<path d="M248 45C248 49.4183 244.418 53 240 53C235.582 53 232 49.4183 232 45L232 8C232 3.58172 235.582 0 240 0C244.418 0 248 3.58172 248 8L248 45Z" fill="#3629B7"/>
<rect x="232" y="55" width="16" height="43" rx="8" fill="#FBB8FF"/>
<path d="M232 108C232 103.582 235.582 100 240 100C244.418 100 248 103.582 248 108V141C248 145.418 244.418 149 240 149C235.582 149 232 145.418 232 141V108Z" fill="#FF4267"/>
<path d="M364 52C364 56.4183 360.418 60 356 60C351.582 60 348 56.4183 348 52V24C348 19.5817 351.582 16 356 16C360.418 16 364 19.5817 364 24V52Z" fill="#3629B7"/>
<rect x="348" y="62" width="16" height="32" rx="8" fill="#FBB8FF"/>
<path d="M348 104C348 99.5817 351.582 96 356 96C360.418 96 364 99.5817 364 104V125C364 129.418 360.418 133 356 133C351.582 133 348 129.418 348 125V104Z" fill="#FF4267"/>
<path d="M480 54.5C480 58.9183 476.418 62.5 472 62.5C467.582 62.5 464 58.9183 464 54.5V50.5C464 46.0817 467.582 42.5 472 42.5C476.418 42.5 480 46.0817 480 50.5V54.5Z" fill="#3629B7"/>
<rect x="464" y="64.5" width="16" height="20" rx="8" fill="#FBB8FF"/>
<path d="M464 94.5C464 90.0817 467.582 86.5 472 86.5C476.418 86.5 480 90.0817 480 94.5V98.5C480 102.918 476.418 106.5 472 106.5C467.582 106.5 464 102.918 464 98.5V94.5Z" fill="#FF4267"/>
<path d="M596 52C596 56.4183 592.418 60 588 60C583.582 60 580 56.4183 580 52V24C580 19.5817 583.582 16 588 16C592.418 16 596 19.5817 596 24V52Z" fill="#3629B7"/>
<rect x="580" y="62" width="16" height="32" rx="8" fill="#FBB8FF"/>
<path d="M580 104C580 99.5817 583.582 96 588 96C592.418 96 596 99.5817 596 104V125C596 129.418 592.418 133 588 133C583.582 133 580 129.418 580 125V104Z" fill="#FF4267"/>
<path d="M712 52C712 56.4183 708.418 60 704 60C699.582 60 696 56.4183 696 52V24C696 19.5817 699.582 16 704 16C708.418 16 712 19.5817 712 24V52Z" fill="#3629B7"/>
<rect x="696" y="62" width="16" height="32" rx="8" fill="#FBB8FF"/>
<path d="M696 104C696 99.5817 699.582 96 704 96C708.418 96 712 99.5817 712 104V125C712 129.418 708.418 133 704 133C699.582 133 696 129.418 696 125V104Z" fill="#FF4267"/>
</svg>
