<svg width="39" height="40" viewBox="0 0 39 40" fill="none" xmlns="http://www.w3.org/2000/svg">
<g id="Frame">
<path id="Vector" d="M6.57281 29.4598H15.3766V31.4607C15.3766 33.8918 13.4058 35.8626 10.9747 35.8626C8.54362 35.8626 6.57281 33.8918 6.57281 31.4607V29.4598ZM13.0692 23.057L13.1399 22.8451C14.3678 19.475 14.5763 18.8494 14.5763 18.2549C14.5763 17.0552 14.2521 15.6257 13.7317 14.6162C13.3444 13.865 13.0716 13.6459 12.9756 13.6459C10.9281 13.6459 8.97386 15.829 8.97386 18.2549C8.97386 19.7897 9.09418 21.0933 9.3368 22.6703C9.3465 22.7333 9.36937 22.8766 9.39823 23.057H13.0692ZM12.9756 10.4445C16.177 10.4445 17.7777 15.0535 17.7777 18.2549C17.7777 19.8556 16.9773 21.4563 16.177 23.8573L15.3766 26.2584H6.57281C6.57281 24.6577 5.77246 22.2567 5.77246 18.2549C5.77246 14.2532 8.97038 10.4445 12.9756 10.4445ZM32.2704 23.2143L31.9229 25.185C31.5008 27.5791 29.2176 29.1777 26.8234 28.7555C24.4292 28.3334 22.8306 26.0503 23.2529 23.6561L23.6002 21.6857L32.2704 23.2143ZM30.5905 16.4167C30.8546 15.6167 31.0721 14.9854 31.0748 14.9764C31.3979 13.9229 31.6525 12.8908 31.8515 11.7628C32.2728 9.37374 30.7273 6.88448 28.7109 6.52893C28.6163 6.51225 28.3096 6.68063 27.7977 7.35318C27.1099 8.25695 26.5425 9.60848 26.3342 10.79C26.2409 11.3185 26.2556 11.437 26.7669 14.4123C26.837 14.8209 26.8969 15.1899 26.9516 15.5597L26.9844 15.7808L30.5905 16.4167ZM29.2669 3.37617C33.2111 4.07167 35.6991 8.37779 35.0042 12.3187C34.3094 16.2597 33.1042 18.4852 32.8263 20.0616L24.1562 18.5329L23.785 16.0293C23.4136 13.5258 22.9034 11.8104 23.1813 10.2341C23.7373 7.0813 26.114 2.82024 29.2669 3.37617Z" fill="white"/>
</g>
</svg>
