<svg width="169" height="32" viewBox="0 0 169 32" fill="none" xmlns="http://www.w3.org/2000/svg">
<path d="M10.7983 22.3083V9.94008H18.3567V12.2763H13.1345V14.9561H17.326V17.2923H13.1345V22.3083H10.7983ZM20.0792 11.7438V9.68241H22.4154V11.7438H20.0792ZM20.0792 22.3083V13.0321H22.4154V22.3083H20.0792ZM30.5561 22.3083C29.9148 22.4286 29.2849 22.4801 28.6665 22.4629C28.0538 22.4515 27.5041 22.3456 27.0174 22.1451C26.5364 21.939 26.1699 21.6098 25.918 21.1574C25.689 20.7337 25.5687 20.3042 25.5573 19.869C25.5458 19.4281 25.5401 18.93 25.5401 18.3745V10.4554H27.8763V18.2371C27.8763 18.5979 27.8792 18.9242 27.8849 19.2163C27.8964 19.5026 27.9565 19.7316 28.0653 19.9034C28.2714 20.2298 28.6007 20.4073 29.053 20.4359C29.5054 20.4645 30.0064 20.4416 30.5561 20.3672V22.3083ZM23.9597 14.8358V13.0321H30.5561V14.8358H23.9597ZM38.9448 22.3083V17.9279C38.9448 17.716 38.9333 17.4469 38.9104 17.1205C38.8875 16.7884 38.816 16.4563 38.6957 16.1242C38.5755 15.7921 38.3779 15.5144 38.1031 15.2911C37.8339 15.0678 37.4503 14.9561 36.9521 14.9561C36.7517 14.9561 36.537 14.9876 36.308 15.0506C36.0789 15.1136 35.8642 15.2367 35.6638 15.4199C35.4634 15.5974 35.2973 15.8608 35.1656 16.2101C35.0396 16.5594 34.9766 17.0232 34.9766 17.6015L33.6368 16.9659C33.6368 16.233 33.7856 15.5459 34.0834 14.9046C34.3811 14.2632 34.8278 13.745 35.4233 13.3499C36.0245 12.9548 36.7803 12.7573 37.6908 12.7573C38.418 12.7573 39.0106 12.8804 39.4687 13.1266C39.9268 13.3728 40.2818 13.6849 40.5338 14.0628C40.7914 14.4408 40.9747 14.8358 41.0835 15.2481C41.1923 15.6547 41.2581 16.0269 41.281 16.3647C41.3039 16.7025 41.3154 16.9488 41.3154 17.1034V22.3083H38.9448ZM32.6061 22.3083V13.0321H34.6846V16.107H34.9766V22.3083H32.6061ZM47.6881 22.566C46.7375 22.566 45.8987 22.3627 45.1715 21.9562C44.45 21.5439 43.8831 20.9799 43.4708 20.2641C43.0643 19.5427 42.861 18.7181 42.861 17.7905C42.861 16.777 43.0614 15.8952 43.4622 15.1451C43.8631 14.3949 44.4156 13.8138 45.1199 13.4015C45.8242 12.9835 46.6345 12.7745 47.5506 12.7745C48.5241 12.7745 49.3515 13.0035 50.0329 13.4616C50.7143 13.9197 51.2182 14.5639 51.5445 15.3941C51.8709 16.2244 51.9855 17.2007 51.8881 18.323H49.5777V17.4641C49.5777 16.5193 49.4259 15.8408 49.1224 15.4285C48.8247 15.0105 48.3351 14.8015 47.6537 14.8015C46.8578 14.8015 46.2709 15.0449 45.8929 15.5316C45.5207 16.0126 45.3347 16.7254 45.3347 17.6702C45.3347 18.5349 45.5207 19.2048 45.8929 19.6801C46.2709 20.1496 46.8234 20.3844 47.5506 20.3844C48.0087 20.3844 48.4009 20.2842 48.7273 20.0838C49.0537 19.8834 49.3028 19.5942 49.4746 19.2163L51.8108 19.8862C51.4615 20.7337 50.909 21.3922 50.1531 21.8617C49.403 22.3312 48.5813 22.566 47.6881 22.566ZM44.6132 18.323V16.588H50.7629V18.323H44.6132ZM57.4521 22.566C56.284 22.566 55.3392 22.3026 54.6177 21.7758C53.9019 21.2433 53.4668 20.4932 53.3121 19.5255L55.6999 19.1647C55.7973 19.5999 56.012 19.9406 56.3441 20.1868C56.6819 20.4331 57.1085 20.5562 57.6239 20.5562C58.0476 20.5562 58.374 20.476 58.603 20.3157C58.8321 20.1496 58.9466 19.9206 58.9466 19.6285C58.9466 19.4453 58.9008 19.2993 58.8091 19.1905C58.7175 19.076 58.5114 18.9643 58.1907 18.8555C57.8758 18.7467 57.3834 18.6036 56.7134 18.4261C55.9576 18.2314 55.3535 18.0138 54.9011 17.7733C54.4488 17.5328 54.1224 17.2465 53.922 16.9144C53.7216 16.5766 53.6214 16.17 53.6214 15.6948C53.6214 15.0992 53.7731 14.5839 54.0766 14.1487C54.3801 13.7078 54.8066 13.37 55.3563 13.1352C55.9118 12.8947 56.5645 12.7745 57.3147 12.7745C58.0419 12.7745 58.686 12.8861 59.2472 13.1094C59.8083 13.3328 60.2607 13.6506 60.6043 14.0628C60.9536 14.4751 61.1683 14.9618 61.2484 15.523L58.8607 15.9524C58.8206 15.6089 58.6717 15.3369 58.4141 15.1365C58.1564 14.9361 57.8071 14.8187 57.3662 14.7843C56.9367 14.7557 56.5903 14.8129 56.3269 14.9561C56.0692 15.0992 55.9404 15.3054 55.9404 15.5745C55.9404 15.7348 55.9948 15.8694 56.1036 15.9782C56.2181 16.087 56.45 16.1986 56.7993 16.3132C57.1543 16.4277 57.6926 16.5766 58.4141 16.7598C59.1184 16.943 59.6824 17.1578 60.1061 17.404C60.5356 17.6445 60.8476 17.9365 61.0423 18.2801C61.237 18.6179 61.3343 19.0273 61.3343 19.5083C61.3343 20.4588 60.9908 21.2061 60.3036 21.75C59.6165 22.294 58.666 22.566 57.4521 22.566ZM66.8464 22.566C65.6783 22.566 64.7335 22.3026 64.012 21.7758C63.2962 21.2433 62.861 20.4932 62.7064 19.5255L65.0942 19.1647C65.1915 19.5999 65.4063 19.9406 65.7384 20.1868C66.0762 20.4331 66.5028 20.5562 67.0181 20.5562C67.4419 20.5562 67.7683 20.476 67.9973 20.3157C68.2263 20.1496 68.3409 19.9206 68.3409 19.6285C68.3409 19.4453 68.2951 19.2993 68.2034 19.1905C68.1118 19.076 67.9057 18.9643 67.585 18.8555C67.2701 18.7467 66.7777 18.6036 66.1077 18.4261C65.3519 18.2314 64.7478 18.0138 64.2954 17.7733C63.8431 17.5328 63.5167 17.2465 63.3163 16.9144C63.1158 16.5766 63.0156 16.17 63.0156 15.6948C63.0156 15.0992 63.1674 14.5839 63.4709 14.1487C63.7743 13.7078 64.2009 13.37 64.7506 13.1352C65.3061 12.8947 65.9588 12.7745 66.7089 12.7745C67.4361 12.7745 68.0803 12.8861 68.6415 13.1094C69.2026 13.3328 69.655 13.6506 69.9985 14.0628C70.3478 14.4751 70.5626 14.9618 70.6427 15.523L68.255 15.9524C68.2149 15.6089 68.066 15.3369 67.8083 15.1365C67.5507 14.9361 67.2014 14.8187 66.7605 14.7843C66.331 14.7557 65.9846 14.8129 65.7212 14.9561C65.4635 15.0992 65.3347 15.3054 65.3347 15.5745C65.3347 15.7348 65.3891 15.8694 65.4979 15.9782C65.6124 16.087 65.8443 16.1986 66.1936 16.3132C66.5486 16.4277 67.0869 16.5766 67.8083 16.7598C68.5126 16.943 69.0767 17.1578 69.5004 17.404C69.9298 17.6445 70.2419 17.9365 70.4366 18.2801C70.6313 18.6179 70.7286 19.0273 70.7286 19.5083C70.7286 20.4588 70.3851 21.2061 69.6979 21.75C69.0108 22.294 68.0603 22.566 66.8464 22.566ZM76.055 22.3083V9.94008H78.3913V15.6432L83.0981 9.94008H85.9496L80.779 16.0383L86.276 22.3083H83.3214L78.3913 16.6739V22.3083H76.055ZM87.651 11.7438V9.68241H89.9872V11.7438H87.651ZM87.651 22.3083V13.0321H89.9872V22.3083H87.651ZM98.8837 22.3083V17.9279C98.8837 17.716 98.8722 17.4469 98.8493 17.1205C98.8264 16.7884 98.7549 16.4563 98.6346 16.1242C98.5144 15.7921 98.3168 15.5144 98.042 15.2911C97.7728 15.0678 97.3892 14.9561 96.891 14.9561C96.6906 14.9561 96.4759 14.9876 96.2469 15.0506C96.0178 15.1136 95.8031 15.2367 95.6027 15.4199C95.4023 15.5974 95.2362 15.8608 95.1045 16.2101C94.9785 16.5594 94.9156 17.0232 94.9156 17.6015L93.5757 16.9659C93.5757 16.233 93.7245 15.5459 94.0223 14.9046C94.32 14.2632 94.7667 13.745 95.3622 13.3499C95.9634 12.9548 96.7193 12.7573 97.6297 12.7573C98.3569 12.7573 98.9495 12.8804 99.4076 13.1266C99.8657 13.3728 100.221 13.6849 100.473 14.0628C100.73 14.4408 100.914 14.8358 101.022 15.2481C101.131 15.6547 101.197 16.0269 101.22 16.3647C101.243 16.7025 101.254 16.9488 101.254 17.1034V22.3083H98.8837ZM92.545 22.3083V13.0321H94.6235V16.107H94.9156V22.3083H92.545ZM107.451 26.6888C106.924 26.6888 106.423 26.6029 105.948 26.4311C105.473 26.265 105.046 26.0303 104.668 25.7268C104.296 25.429 103.993 25.0797 103.758 24.6789L105.922 23.6311C106.071 23.9059 106.283 24.1149 106.558 24.2581C106.838 24.4012 107.142 24.4728 107.468 24.4728C107.818 24.4728 108.147 24.4127 108.456 24.2924C108.765 24.1779 109.012 24.0032 109.195 23.7685C109.384 23.5394 109.472 23.2531 109.461 22.9096V20.2126H109.753V13.0321H111.797V22.9439C111.797 23.173 111.786 23.3877 111.763 23.5881C111.746 23.7942 111.711 23.9975 111.66 24.1979C111.511 24.7648 111.233 25.2315 110.827 25.5979C110.426 25.9644 109.933 26.2364 109.349 26.4139C108.765 26.5971 108.133 26.6888 107.451 26.6888ZM107.245 22.566C106.392 22.566 105.645 22.3513 105.003 21.9218C104.362 21.4924 103.861 20.9083 103.5 20.1697C103.145 19.431 102.968 18.5979 102.968 17.6702C102.968 16.7254 103.148 15.8866 103.509 15.1536C103.875 14.415 104.388 13.8338 105.046 13.4101C105.705 12.9863 106.478 12.7745 107.365 12.7745C108.247 12.7745 108.989 12.9892 109.59 13.4187C110.191 13.8481 110.646 14.4322 110.955 15.1708C111.265 15.9095 111.419 16.7426 111.419 17.6702C111.419 18.5979 111.262 19.431 110.947 20.1697C110.638 20.9083 110.174 21.4924 109.555 21.9218C108.937 22.3513 108.167 22.566 107.245 22.566ZM107.623 20.4875C108.144 20.4875 108.559 20.3701 108.868 20.1353C109.183 19.9005 109.409 19.5713 109.547 19.1476C109.684 18.7238 109.753 18.2314 109.753 17.6702C109.753 17.1091 109.684 16.6166 109.547 16.1929C109.409 15.7692 109.189 15.4399 108.886 15.2052C108.588 14.9704 108.196 14.853 107.709 14.853C107.188 14.853 106.758 14.9819 106.42 15.2395C106.088 15.4915 105.842 15.8322 105.682 16.2616C105.521 16.6854 105.441 17.1549 105.441 17.6702C105.441 18.1913 105.519 18.6666 105.673 19.096C105.828 19.5198 106.065 19.8576 106.386 20.1095C106.707 20.3615 107.119 20.4875 107.623 20.4875Z" fill="#3629B7"/>
</svg>
