<svg width="24" height="23" viewBox="0 0 24 23" fill="none" xmlns="http://www.w3.org/2000/svg">
<path d="M11.6257 21.0226C6.35502 21.0226 2.08229 16.7498 2.08229 11.4792C2.08229 6.20852 6.35502 1.93579 11.6257 1.93579C16.8963 1.93579 21.1691 6.20852 21.1691 11.4792C21.1691 16.7498 16.8963 21.0226 11.6257 21.0226ZM11.6257 19.1139C15.8423 19.1139 19.2604 15.6958 19.2604 11.4792C19.2604 7.26265 15.8423 3.84447 11.6257 3.84447C7.40915 3.84447 3.99097 7.26265 3.99097 11.4792C3.99097 15.6958 7.40915 19.1139 11.6257 19.1139ZM10.6714 14.3422H12.58V16.2509H10.6714V14.3422ZM12.58 12.7724V13.3879H10.6714V11.9564C10.6714 11.4293 11.0986 11.002 11.6257 11.002C12.4163 11.002 13.0572 10.3611 13.0572 9.57051C13.0572 8.77991 12.4163 8.139 11.6257 8.139C10.9312 8.139 10.3522 8.63357 10.2217 9.28972L8.34974 8.91532C8.65423 7.3843 10.0052 6.23032 11.6257 6.23032C13.4704 6.23032 14.9659 7.72577 14.9659 9.57051C14.9659 11.0836 13.9597 12.3618 12.58 12.7724Z" fill="#475569"/>
</svg>
