<svg width="19" height="19" viewBox="0 0 19 19" fill="none" xmlns="http://www.w3.org/2000/svg">
<path d="M10.4045 4.23892C11.2446 4.23892 11.9459 3.52987 11.9459 2.6975C11.9459 2.28869 11.7835 1.89662 11.4945 1.60754C11.2054 1.31847 10.8133 1.15607 10.4045 1.15607C9.54901 1.15607 8.86307 1.8343 8.86307 2.6975C8.86307 3.52987 9.54901 4.23892 10.4045 4.23892ZM7.62222 14.9364L8.39294 11.5607L10.0191 13.1021V17.7264H11.5606V11.9461L9.93436 10.4046L10.4045 8.09249C10.9323 8.69799 11.5837 9.18329 12.315 9.51567C13.0462 9.84804 13.8402 10.0198 14.6434 10.0193V8.47784C13.1714 8.47784 11.9459 7.70713 11.3216 6.61272L10.5509 5.39499C10.2426 4.91715 9.78022 4.62428 9.24843 4.62428C9.00951 4.62428 8.86307 4.68594 8.62415 4.68594L4.62415 6.38151V10.0193H6.16558V7.38343L7.54515 6.84393L6.31201 13.1021L2.53552 12.3314L2.22723 13.8728L7.62222 14.9364Z" fill="white"/>
</svg>
