<svg width="20" height="20" viewBox="0 0 20 20" fill="none" xmlns="http://www.w3.org/2000/svg">
<path d="M18.1346 7.71777C18.1346 12.7764 10.6342 16.8709 10.3148 17.04C10.2306 17.0853 10.1365 17.109 10.0409 17.109C9.9453 17.109 9.85119 17.0853 9.76701 17.04C9.52492 16.91 5.17453 14.5331 3.06943 11.1945C3.04227 11.1507 3.02729 11.1006 3.02603 11.0491C3.02476 10.9976 3.03726 10.9468 3.06224 10.9018C3.08721 10.8567 3.12375 10.8192 3.16809 10.793C3.21242 10.7669 3.26293 10.753 3.31441 10.7529H5.99402C6.08922 10.753 6.18297 10.7295 6.26693 10.6847C6.35089 10.6398 6.42247 10.5749 6.47531 10.4957L7.15027 9.48395L8.98148 12.23C9.05164 12.3353 9.15438 12.4146 9.27395 12.4558C9.39351 12.4971 9.52331 12.498 9.64343 12.4584C9.77086 12.4152 9.8799 12.3302 9.95273 12.217L10.9283 10.7529H12.3534C12.4326 10.7531 12.5111 10.737 12.5839 10.7056C12.6566 10.6741 12.7221 10.6281 12.7764 10.5703C12.8306 10.5125 12.8723 10.4441 12.899 10.3695C12.9257 10.2949 12.9368 10.2156 12.9315 10.1365C12.9186 9.9879 12.8499 9.84969 12.7394 9.74957C12.6288 9.64946 12.4845 9.59484 12.3353 9.59668H10.619C10.5238 9.59662 10.4301 9.62007 10.3461 9.66495C10.2621 9.70983 10.1906 9.77475 10.1377 9.85395L9.46277 10.8657L7.63156 8.11957C7.56135 8.01419 7.45849 7.93477 7.33877 7.89351C7.21906 7.85226 7.0891 7.85145 6.96888 7.89121C6.84177 7.93461 6.73304 8.01966 6.66031 8.13258L5.68472 9.59668H2.4913C2.42953 9.59685 2.36932 9.57723 2.31951 9.54068C2.2697 9.50414 2.23291 9.45259 2.21453 9.39361C2.04016 8.85198 1.94998 8.28678 1.94714 7.71777C1.94848 6.52989 2.42096 5.39104 3.26092 4.55108C4.10088 3.71112 5.23973 3.23864 6.42761 3.2373C7.9199 3.2373 9.22646 3.87902 10.0409 4.96373C10.8553 3.87902 12.1619 3.2373 13.6542 3.2373C14.8421 3.23864 15.9809 3.71112 16.8209 4.55108C17.6608 5.39104 18.1333 6.52989 18.1346 7.71777Z" fill="white"/>
</svg>
