<svg width="56" height="56" viewBox="0 0 56 56" fill="none" xmlns="http://www.w3.org/2000/svg">
<path d="M49.1157 17.0307C48.8614 16.8998 48.5611 16.8937 48.302 17.015L44.7625 18.6607L38.2164 20.1115L32.7921 20.5856L30.1862 20.7301L30.9439 19.3168L30.944 19.3171C31.4618 19.4157 31.9928 19.4229 32.5131 19.3388C32.8574 19.2803 33.1821 19.1378 33.4586 18.9239C33.871 18.5904 33.9599 17.7842 33.9754 17.3214L34.5519 17.0537L34.5516 17.0538C34.642 17.0118 34.7121 16.9357 34.7464 16.8419C34.7806 16.7482 34.7761 16.6447 34.7344 16.5543L34.2822 15.5801C34.2339 15.3169 34.0015 14.0757 33.7957 13.3834L33.7954 13.3834C33.5444 12.6378 32.9818 12.0384 32.2538 11.7413C31.2949 11.3922 30.2384 11.4278 29.3051 11.84C28.9246 11.3839 28.3441 11.1445 27.753 11.1999C27.162 11.2552 26.6358 11.5986 26.3473 12.1171C26.0585 12.636 26.0436 13.2639 26.3081 13.7955C26.525 14.2704 26.924 14.638 27.4153 14.8156C27.3997 15.0292 27.4088 15.2439 27.4427 15.4555C27.5586 16.249 27.8234 17.0135 28.2232 17.7085L27.8152 18.1871L27.1349 17.6763C27.1002 17.6255 27.0633 17.5762 27.0234 17.5289L27.0232 17.5292C26.4148 16.8008 25.5996 16.2747 24.6858 16.0194L19.5336 14.5757L16.7967 13.2013L12.2432 11.1397L12.2302 11.1074L12.2298 11.1074C12.1573 10.9279 12.1457 10.7291 12.1976 10.5423L12.4762 9.5495L12.4763 9.54983C12.5283 9.36544 12.5467 9.17317 12.5315 8.98224L12.4654 8.15422C12.4311 7.72387 12.113 7.37003 11.689 7.28962C11.265 7.20953 10.8394 7.4231 10.6504 7.81096L9.8635 9.42585L9.65412 9.30616L9.65418 9.30649C9.39502 9.1591 9.06628 9.23813 8.90258 9.4871L7.91516 10.9949C7.74793 11.2487 7.81219 11.5895 8.06055 11.7643L8.55452 12.1136L7.90563 13.4458C6.38758 15.8327 2.87656 21.3763 2.76069 21.7887C2.68993 22.041 2.73874 22.4419 3.63571 23.5028C3.85188 23.759 4.12102 23.9653 4.42434 24.1076L14.0175 28.6217C14.3268 29.5318 15.8902 34.0718 16.9051 35.6533C17.9384 37.2627 18.4205 41.6523 18.4256 41.6981L18.4856 42.2247L18.4856 42.225C18.6338 43.5306 19.0003 44.802 19.5695 45.9862L19.6979 46.2555C20.1077 47.1086 20.4059 48.0112 20.5849 48.941L21.0484 51.348C21.1155 51.6968 21.3184 52.0045 21.6125 52.2036C21.9066 52.4028 22.2675 52.4769 22.6163 52.4097L28.0033 51.3725C28.346 51.3038 28.5847 50.9915 28.5607 50.6429C28.5369 50.294 28.2576 50.0171 27.9089 49.996L25.6496 49.909C25.2119 49.8924 24.7875 49.7532 24.4249 49.5075L24.2708 49.4031C23.7416 49.0431 23.3815 48.4833 23.2735 47.8528L22.0517 40.6475L20.3584 31.8532C20.2415 31.251 20.3508 30.6272 20.6651 30.1006L22.7242 29.7496L22.7879 29.7374C24.2095 29.4637 26.5144 28.0205 26.7871 27.848C28.2308 27.1915 29.6734 26.3982 30.1956 24.6726C30.2066 24.6732 30.2175 24.6749 30.2289 24.6751L30.2288 24.6748C31.5196 24.709 32.8066 24.5251 34.0362 24.1311L36.7451 23.2649L41.6312 21.7498L44.2835 20.863L45.7477 20.7664L45.7474 20.7661C45.8217 20.7614 45.8924 20.7348 45.9514 20.6895L47.5901 19.4338L49.1026 18.6913L49.1029 18.6909C49.4181 18.5362 49.6188 18.2168 49.6216 17.8655C49.6245 17.5145 49.4287 17.1918 49.1161 17.0318L49.1157 17.0307ZM33.4429 16.739C33.3079 16.8015 33.2228 16.9383 33.2258 17.0871C33.2344 17.6239 33.1181 18.2327 32.9858 18.3395C32.3531 18.8518 31.0454 18.5856 30.6602 18.4919L30.6598 18.4919C30.2392 18.3671 29.8385 18.1827 29.4696 17.9447C29.0975 17.6904 28.8101 17.3304 28.6439 16.9114C30.1275 15.0776 32.4125 14.4636 33.2508 14.294C33.4091 14.9866 33.5477 15.7511 33.5497 15.7613C33.5555 15.7931 33.5651 15.8237 33.5786 15.8529L33.8928 16.5295L33.4429 16.739ZM31.9936 12.447L31.9939 12.447C32.4873 12.657 32.8731 13.0603 33.0611 13.5627C32.1495 13.7467 29.9616 14.3509 28.3542 16.0977C28.2891 15.8589 28.2316 15.603 28.1849 15.3285C28.0216 14.3701 28.6124 13.1004 29.4495 12.6106L29.4491 12.6104C30.2352 12.1951 31.1611 12.1354 31.9939 12.4469L31.9936 12.447ZM26.9851 13.4688C26.7292 12.9355 26.9528 12.2958 27.4851 12.0384C27.8851 11.8571 28.3555 11.9437 28.6645 12.2555C28.1309 12.7412 27.7444 13.3671 27.5488 14.0616C27.2995 13.9331 27.1009 13.7242 26.9854 13.4685L26.9851 13.4688ZM28.7046 18.3029L28.7046 18.3026C28.8207 18.4122 28.9487 18.5086 29.0855 18.5906C29.4343 18.8076 29.8041 18.9894 30.1891 19.1334L29.6826 20.0775C29.6203 19.9654 29.5558 19.8544 29.4861 19.7461C29.2216 19.3416 28.887 18.9872 28.498 18.7L28.4175 18.6389L28.7046 18.3029ZM19.2285 15.2642L19.2284 15.2639C19.25 15.2744 19.2725 15.2831 19.2956 15.2892L24.482 16.7438C25.2501 16.958 25.9349 17.4002 26.4459 18.0122C26.6782 18.2896 26.764 18.6611 26.6771 19.0119C26.5901 19.3631 26.3407 19.6514 26.0059 19.788L25.8107 19.868C25.4814 20.0012 25.1092 19.9733 24.8037 19.7928L23.4929 19.0137L18.3465 16.1725L12.5486 13.069C12.6641 12.7723 12.6891 12.4474 12.6203 12.1362L16.4728 13.8794L19.2285 15.2642ZM20.2078 25.4984L20.2081 25.498C20.5401 26.4889 20.9752 27.4421 21.5065 28.342L21.9638 29.1155L20.5861 29.3507C20.2509 28.9294 19.3767 27.7489 19.1655 26.6517C19.0238 25.8362 19.0152 25.0029 19.1397 24.1847C19.3099 24.1625 19.5181 24.1341 19.7405 24.1015L20.2078 25.4984ZM18.8741 23.4603L17.7922 22.9766L17.7918 22.9764C17.1324 22.6821 16.4093 22.5598 15.6897 22.6207L13.893 22.7752C13.4269 22.8153 12.9577 22.7617 12.5131 22.6172L7.67641 21.0519C7.99884 20.6418 8.2916 20.209 8.55301 19.7573C9.28718 18.4989 9.98247 16.1044 10.3313 14.7889L10.3314 14.7892C10.4277 14.4284 10.7431 14.1697 11.1155 14.1452C11.4958 14.1212 11.8555 13.9631 12.13 13.6986L17.9873 16.8334L23.119 19.6678L23.4082 19.8395L22.2128 22.011C21.9644 22.4808 21.5696 22.8563 21.0885 23.0812C20.9043 23.1652 19.8179 23.3402 18.8741 23.4604L18.8741 23.4603ZM9.43502 10.047L9.8652 10.2924L9.80076 11.3162L9.34258 11.7511L8.64325 11.255L9.43502 10.047ZM8.55103 13.8322C8.55862 13.8202 8.56582 13.8078 8.5719 13.795L9.18969 12.5287C9.27949 12.5582 9.37544 12.5647 9.46827 12.5479C9.5741 12.5275 9.67178 12.4772 9.74982 12.4031L10.3724 11.81C10.4749 11.712 10.5372 11.5789 10.5459 11.4374L10.6221 10.223L10.6225 10.2229C10.6305 10.0833 10.5866 9.94607 10.4992 9.83673L11.3255 8.14047L11.3256 8.1408C11.3544 8.08261 11.4086 8.04105 11.4723 8.0288C11.5296 8.01776 11.5887 8.03168 11.6352 8.06718C11.6816 8.10234 11.7111 8.15582 11.7155 8.21413L11.7814 9.04149C11.7895 9.14387 11.7796 9.24699 11.7518 9.34602L11.473 10.3379C11.3762 10.6855 11.3975 11.0554 11.5334 11.3899L11.844 12.1507C11.9555 12.4209 11.9235 12.7289 11.7594 12.9708L11.7296 13.0148C11.5794 13.2379 11.3341 13.3789 11.0658 13.3956C10.7267 13.4175 10.4033 13.5451 10.1408 13.7607C9.8784 13.9764 9.69061 14.269 9.60377 14.5975C9.26495 15.8762 8.59276 18.1972 7.90308 19.3793C7.81768 19.5254 7.73415 19.6598 7.65158 19.7885L7.65191 19.7884C6.78847 19.4876 5.86519 19.4014 4.96126 19.5372C6.03798 17.8009 7.48276 15.5113 8.55101 13.8324L8.55103 13.8322ZM23.8498 50.0255L24.0039 50.1298C24.4825 50.4544 25.0431 50.6385 25.6211 50.6609L27.3743 50.7275L22.4741 51.6709C22.3211 51.7001 22.163 51.6672 22.0342 51.5806C21.9049 51.4937 21.816 51.3586 21.7869 51.2056L21.3235 48.7985C21.1323 47.8058 20.814 46.8417 20.3763 45.9304L20.2479 45.6611C19.7151 44.5526 19.3725 43.3624 19.2336 42.1402L19.1772 41.6488L21.3865 41.2234L22.5321 47.978C22.6754 48.811 23.1507 49.55 23.8498 50.0253L23.8498 50.0255ZM19.6199 31.9952L21.2542 40.4832L19.0835 40.9011C18.8962 39.5394 18.409 36.6023 17.5381 35.2471C16.4827 33.6013 14.6971 28.2838 14.6793 28.2305C14.6469 28.1332 14.5762 28.0535 14.4836 28.0094L4.74438 23.427C4.53845 23.3306 4.356 23.191 4.2097 23.0171C3.70631 22.4217 3.5288 22.0893 3.49653 21.9714C3.58949 21.7812 3.93625 21.2009 4.42477 20.405L4.77251 20.3305L4.77224 20.3309C5.57844 20.1586 6.41486 20.1931 7.20407 20.4316C6.91321 20.8459 6.56218 21.214 6.16241 21.5245L6.36775 21.8398L6.57091 22.1563C6.77495 22.0121 6.96392 21.8481 7.1351 21.6665L12.2807 23.332C12.8209 23.5077 13.3907 23.5727 13.9565 23.5239L15.7532 23.3695C16.3459 23.319 16.9418 23.42 17.4849 23.6621L18.3955 24.0694C18.257 24.973 18.2673 25.8935 18.4267 26.7938C18.6659 28.036 19.5819 29.2956 19.9727 29.7893C19.5974 30.4592 19.472 31.241 19.6195 31.9949L19.6199 31.9952ZM26.4523 27.1745L26.4522 27.1742C26.4358 27.1814 26.42 27.1899 26.4052 27.2C26.3815 27.2151 24.103 28.6607 22.7543 28.9751L22.1538 27.959L22.1537 27.9587C21.6494 27.1046 21.2362 26.1998 20.9211 25.259L20.4936 23.9819C20.571 23.9681 20.647 23.9544 20.7199 23.9404L20.7202 23.9404C20.9537 23.9032 21.1833 23.8437 21.4053 23.7623C22.0336 23.469 22.5493 22.9792 22.8745 22.3669L24.0547 20.2235L24.4192 20.4406C24.8177 20.6757 25.2882 20.7574 25.7425 20.6699C25.8631 20.6467 25.9812 20.6117 26.0949 20.5651L26.2902 20.4851C26.6171 20.3507 26.8999 20.127 27.1061 19.8398C27.3124 19.5526 27.4341 19.2132 27.4574 18.8603L28.0461 19.3022C28.3635 19.5355 28.6368 19.8237 28.8528 20.1535C29.6487 21.3945 29.8879 22.9123 29.5125 24.3379C29.1103 25.8578 27.8353 26.5468 26.4521 27.1741L26.4523 27.1745ZM48.7709 18.0141L47.225 18.7733L47.2249 18.773C47.2028 18.7841 47.1817 18.797 47.162 18.8121L45.5841 20.0213L44.185 20.1139L44.1847 20.114C44.1525 20.1157 44.1209 20.1218 44.0904 20.1321L41.4 21.0331L36.5185 22.5473L33.8066 23.4141C32.6947 23.7694 31.5325 23.9415 30.3659 23.9234C30.4925 23.1089 30.4506 22.2769 30.2426 21.479L32.8447 21.3346L38.3055 20.8576C38.322 20.8564 38.3383 20.854 38.3543 20.8502L44.9652 19.3859C44.9918 19.3801 45.0174 19.3714 45.0422 19.3598L48.6191 17.697L48.619 17.6967C48.6679 17.6739 48.7249 17.6749 48.773 17.6995C48.8212 17.7241 48.8556 17.7698 48.8655 17.8229C48.8809 17.901 48.842 17.9796 48.7708 18.0148L48.7709 18.0141Z" fill="white"/>
</svg>
