<svg width="19" height="19" viewBox="0 0 19 19" fill="none" xmlns="http://www.w3.org/2000/svg">
<g clip-path="url(#clip0_1_151)">
<path d="M8.26514 15.5388C10.0553 15.5388 11.7722 14.8277 13.0381 13.5618C14.304 12.2959 15.0151 10.579 15.0151 8.78883C15.0151 6.99861 14.304 5.28173 13.0381 4.01586C11.7722 2.74998 10.0553 2.03883 8.26514 2.03883C6.47493 2.03883 4.75804 2.74998 3.49217 4.01586C2.2263 5.28173 1.51514 6.99861 1.51514 8.78883C1.51514 10.579 2.2263 12.2959 3.49217 13.5618C4.75804 14.8277 6.47493 15.5388 8.26514 15.5388ZM14.2126 16.0563C14.6101 17.2563 15.5176 17.3763 16.2151 16.3263C16.8526 15.3663 16.4326 14.5788 15.2776 14.5788C14.4226 14.5713 13.9426 15.2388 14.2126 16.0563Z" stroke="#64748B" stroke-width="1.43151" stroke-linecap="round" stroke-linejoin="round"/>
</g>
<defs>
<clipPath id="clip0_1_151">
<rect width="18" height="18" fill="white" transform="translate(0.0151367 0.538818)"/>
</clipPath>
</defs>
</svg>
