<svg width="55" height="40" viewBox="0 0 55 40" fill="none" xmlns="http://www.w3.org/2000/svg">
<g id="Group">
<path id="Vector" d="M50.7852 3.7617H49.8911C49.8899 2.81332 49.5131 1.90443 48.8425 1.2339C48.1719 0.56338 47.2631 0.186529 46.3147 0.185303H45.4206C44.4722 0.1865 43.5633 0.563298 42.8928 1.2339C42.2223 1.90451 41.8454 2.81334 41.8442 3.7617V10.0204H37.889C37.5777 9.32109 37.0923 8.71359 36.4796 8.25499V5.10285C36.4784 4.27302 36.1487 3.47794 35.5619 2.89111C34.9752 2.30435 34.1801 1.97465 33.3502 1.97345C32.8237 1.97704 32.3068 2.11515 31.849 2.3746C31.5856 1.52321 30.9693 0.826327 30.157 0.459899C29.3447 0.0938799 28.4147 0.0938799 27.6024 0.459899C26.7901 0.826317 26.1739 1.52321 25.9104 2.3746C25.4525 2.11515 24.9356 1.97705 24.4092 1.97345C23.7458 1.97585 23.1007 2.1894 22.5667 2.58295C22.0331 2.97652 21.6383 3.52974 21.44 4.1628C20.9821 3.90335 20.4652 3.76525 19.9388 3.76165C19.1089 3.76285 18.3139 4.09255 17.727 4.67931C17.1403 5.26606 16.8106 6.06113 16.8094 6.89106V10.0204H13.233V3.7617C13.2318 2.81332 12.855 1.90443 12.1844 1.2339C11.5138 0.56338 10.6049 0.186529 9.65658 0.185303H8.76248C7.8141 0.1865 6.9052 0.563298 6.23468 1.2339C5.56415 1.90451 5.1873 2.81334 5.18608 3.7617H4.29198C3.3436 3.7629 2.4347 4.1397 1.76418 4.8103C1.09365 5.48091 0.716802 6.38975 0.715576 7.33811V19.8555C0.716374 20.8039 1.09357 21.7128 1.76418 22.3833C2.43478 23.0538 3.34362 23.4311 4.29198 23.4319H5.18608C5.18688 24.3803 5.56407 25.2892 6.23468 25.9597C6.90528 26.6302 7.81412 27.0075 8.76248 27.0083H9.65658C10.605 27.0075 11.5139 26.6303 12.1844 25.9597C12.8549 25.2891 13.2322 24.3803 13.233 23.4319V17.1732H16.8094V18.9614C16.8094 23.5289 18.6562 25.757 19.4917 26.5326V38.632C19.4917 39.1258 19.892 39.5261 20.3858 39.5261C20.8795 39.5261 21.2799 39.1258 21.2799 38.632V26.1146C21.2767 25.8204 21.1318 25.5454 20.8903 25.377C20.7969 25.3103 18.5975 23.7133 18.5975 18.9618V17.1736H29.0069C27.9783 18.429 27.4546 20.0232 27.5388 21.6441C27.5388 22.1379 27.9392 22.5382 28.4329 22.5382C28.9267 22.5382 29.327 22.1379 29.327 21.6441C29.327 17.3449 32.543 17.1784 32.9034 17.1736C33.1405 17.1736 33.3681 17.0794 33.5357 16.9118C33.7033 16.7442 33.7975 16.5166 33.7975 16.2795V12.7031C33.7975 12.466 33.7033 12.2385 33.5357 12.0709C33.3681 11.9032 33.1405 11.809 32.9034 11.809H30.2211C29.5099 11.8082 28.8281 11.5252 28.3251 11.0227C27.8226 10.5198 27.5396 9.838 27.5388 9.12671H33.7975C34.5088 9.1275 35.1906 9.4105 35.6935 9.91303C36.1961 10.416 36.479 11.0977 36.4798 11.809V18.9618C36.4798 23.7133 34.2806 25.3104 34.1955 25.3707C33.9469 25.5367 33.7976 25.8157 33.7976 26.1147V38.6321C33.7976 39.1258 34.1979 39.5262 34.6917 39.5262C35.1854 39.5262 35.5858 39.1258 35.5858 38.6321V26.5326C36.4212 25.7574 38.2681 23.5289 38.2681 18.9615V17.1733H41.8445V23.432C41.8453 24.3803 42.2225 25.2892 42.8931 25.9598C43.5637 26.6303 44.4725 27.0075 45.4209 27.0084H46.315C47.2634 27.0076 48.1723 26.6304 48.8428 25.9598C49.5133 25.2891 49.8906 24.3803 49.8914 23.432H50.7855C51.7339 23.4312 52.6428 23.054 53.3133 22.3834C53.9838 21.7127 54.3611 20.8039 54.3619 19.8556V7.33815C54.3607 6.38977 53.9839 5.48087 53.3133 4.81035C52.6427 4.13982 51.7339 3.76297 50.7855 3.76174L50.7852 3.7617ZM5.18608 21.6437H4.29198C3.81779 21.6429 3.36355 21.4545 3.02828 21.1192C2.69301 20.7839 2.50459 20.3297 2.5038 19.8555V7.33813C2.5042 6.86394 2.693 6.4097 3.02828 6.07443C3.36356 5.73916 3.81781 5.55034 4.29198 5.54995H5.18608V21.6437ZM11.4448 23.4319C11.444 23.9061 11.2556 24.3603 10.9203 24.6956C10.585 25.0309 10.1308 25.2193 9.6566 25.2201H8.7625C8.28831 25.2193 7.83408 25.0309 7.4988 24.6956C7.16353 24.3603 6.97512 23.9061 6.97432 23.4319V3.7617C6.97472 3.28751 7.16352 2.83328 7.4988 2.49801C7.83409 2.16274 8.28833 1.97392 8.7625 1.97352H9.6566C10.1308 1.97392 10.585 2.16273 10.9203 2.49801C11.2556 2.83329 11.4444 3.28753 11.4448 3.7617V23.4319ZM23.0681 5.10234C23.0681 4.36152 23.6684 3.76119 24.4092 3.76119C25.1501 3.76119 25.7504 4.36152 25.7504 5.10234V10.4669C25.7504 11.2078 25.1501 11.8081 24.4092 11.8081C23.6684 11.8081 23.0681 11.2078 23.0681 10.4669V5.10234ZM18.5976 6.89054C18.5976 6.14972 19.1979 5.54939 19.9387 5.54939C20.6796 5.54939 21.2799 6.14972 21.2799 6.89054V10.4669C21.2799 11.2078 20.6796 11.8081 19.9387 11.8081C19.1979 11.8081 18.5976 11.2078 18.5976 10.4669V6.89054ZM30.2209 13.5963H32.0091V15.3845H13.233V11.8081H17.1231C17.5582 12.7333 18.4196 13.3859 19.4278 13.554C20.4361 13.722 21.4627 13.3844 22.174 12.6499C22.8298 13.3249 23.7551 13.6681 24.6923 13.5835C25.6295 13.4993 26.4788 12.9964 27.0034 12.2152C27.842 13.0957 29.0047 13.5951 30.2209 13.5963ZM30.2209 7.33759H27.5386V3.31414C27.5386 2.57332 28.1389 1.97299 28.8797 1.97299C29.6206 1.97299 30.2209 2.57332 30.2209 3.31414V7.33759ZM34.6914 7.4278C34.3972 7.36793 34.0975 7.33759 33.7973 7.33759H32.0091V5.10234C32.0091 4.36152 32.6094 3.76119 33.3502 3.76119C34.0911 3.76119 34.6914 4.36152 34.6914 5.10234V7.4278ZM41.8442 15.3845H38.2678V11.8081H41.8442V15.3845ZM48.1029 23.4314C48.1021 23.9056 47.9137 24.3598 47.5784 24.6951C47.2431 25.0304 46.7889 25.2188 46.3147 25.2196H45.4206C44.9464 25.2188 44.4922 25.0304 44.1569 24.6951C43.8216 24.3598 43.6332 23.9056 43.6324 23.4314V3.76117C43.6328 3.28698 43.8216 2.83275 44.1569 2.49748C44.4922 2.16221 44.9464 1.97339 45.4206 1.97299H46.3147C46.7889 1.97339 47.2431 2.1622 47.5784 2.49748C47.9137 2.83276 48.1025 3.287 48.1029 3.76117V23.4314ZM52.5734 19.855C52.5726 20.3292 52.3842 20.7834 52.0489 21.1187C51.7136 21.454 51.2594 21.6424 50.7852 21.6432H49.8911V5.54935H50.7852C51.2594 5.54975 51.7136 5.73856 52.0489 6.07384C52.3842 6.40912 52.573 6.86337 52.5734 7.33754V19.855Z" fill="white" fill-opacity="0.85"/>
</g>
</svg>
