<svg width="41" height="45" viewBox="0 0 41 45" fill="none" xmlns="http://www.w3.org/2000/svg">
<g id="emojione:sleepy-face" filter="url(#filter0_ddddd_1_335)">
<path id="Vector" d="M22 36.9861C31.8376 36.9861 39.8125 29.0112 39.8125 19.1736C39.8125 9.33604 31.8376 1.36111 22 1.36111C12.1624 1.36111 4.1875 9.33604 4.1875 19.1736C4.1875 29.0112 12.1624 36.9861 22 36.9861Z" fill="#FFDD67"/>
<path id="Vector_2" d="M29.0063 28.8518C29.0063 32.5924 25.8594 33.8393 22 33.8393C18.1406 33.8393 14.9938 32.5924 14.9938 28.8518C14.9938 23.9236 18.1406 20.7174 22 20.7174C25.8594 20.7174 29.0063 23.9236 29.0063 28.8518Z" fill="#664E27"/>
<path id="Vector_3" d="M23.6031 23.3299C23.1281 23.3299 22.3562 23.8049 22.5937 25.0517C22.7125 25.7049 23.6031 26.4767 23.6031 27.4861C23.6031 29.5642 20.3375 29.5642 20.3375 27.4861C20.3375 26.4767 21.2281 25.7049 21.3468 25.0517C21.6437 23.8049 20.8718 23.3299 20.3375 23.3299C18.9718 23.3892 16.7156 24.8736 16.7156 27.3674C16.7156 30.2174 19.0312 32.533 21.9406 32.533C24.85 32.533 27.1656 30.2174 27.1656 27.3674C27.225 24.8736 24.9687 23.3299 23.6031 23.3299Z" fill="#4C3526"/>
<path id="Vector_4" d="M22 30.2767C18.2 30.2767 17.0719 31.4642 17.0719 31.4642C18.0219 33.1267 22 33.008 22 33.008C22 33.008 25.9188 33.1267 26.9281 31.4642C26.9281 31.4642 25.8 30.2767 22 30.2767Z" fill="#FF717F"/>
<path id="Vector_5" d="M20.8718 16.0861C20.0999 15.6705 18.4374 20.7767 15.8249 21.2517C15.5874 20.9549 15.2906 20.658 14.9937 20.4205C12.4999 18.3424 8.64057 18.758 6.38432 21.4892C4.12807 24.1611 4.36557 28.0799 6.85932 30.158C9.35307 32.2955 13.2124 31.8205 15.4687 29.0892C18.3781 25.6455 21.8812 16.6205 20.8718 16.0861Z" fill="#52E8B6"/>
<path id="Vector_6" d="M24.3157 12.3455C26.8094 17.0955 31.8563 17.0955 34.35 12.3455C34.4688 12.108 34.1719 11.9892 33.7563 11.7517C31.2625 13.7111 27.1657 13.533 24.9094 11.7517C24.5532 12.0486 24.1969 12.108 24.3157 12.3455ZM9.65004 12.3455C12.1438 17.0955 17.1907 17.0955 19.6844 12.3455C19.8032 12.108 19.5063 11.9892 19.0907 11.7517C16.5969 13.7111 12.5 13.533 10.2438 11.7517C9.82817 12.0486 9.53129 12.108 9.65004 12.3455Z" fill="#664E27"/>
</g>
<defs>
<filter id="filter0_ddddd_1_335" x="-1" y="-0.826385" width="43" height="47" filterUnits="userSpaceOnUse" color-interpolation-filters="sRGB">
<feFlood flood-opacity="0" result="BackgroundImageFix"/>
<feColorMatrix in="SourceAlpha" type="matrix" values="0 0 0 0 0 0 0 0 0 0 0 0 0 0 0 0 0 0 127 0" result="hardAlpha"/>
<feOffset/>
<feColorMatrix type="matrix" values="0 0 0 0 0 0 0 0 0 0 0 0 0 0 0 0 0 0 0.1 0"/>
<feBlend mode="normal" in2="BackgroundImageFix" result="effect1_dropShadow_1_335"/>
<feColorMatrix in="SourceAlpha" type="matrix" values="0 0 0 0 0 0 0 0 0 0 0 0 0 0 0 0 0 0 127 0" result="hardAlpha"/>
<feOffset/>
<feGaussianBlur stdDeviation="0.5"/>
<feColorMatrix type="matrix" values="0 0 0 0 0 0 0 0 0 0 0 0 0 0 0 0 0 0 0.1 0"/>
<feBlend mode="normal" in2="effect1_dropShadow_1_335" result="effect2_dropShadow_1_335"/>
<feColorMatrix in="SourceAlpha" type="matrix" values="0 0 0 0 0 0 0 0 0 0 0 0 0 0 0 0 0 0 127 0" result="hardAlpha"/>
<feOffset dy="1"/>
<feGaussianBlur stdDeviation="0.5"/>
<feColorMatrix type="matrix" values="0 0 0 0 0 0 0 0 0 0 0 0 0 0 0 0 0 0 0.09 0"/>
<feBlend mode="normal" in2="effect2_dropShadow_1_335" result="effect3_dropShadow_1_335"/>
<feColorMatrix in="SourceAlpha" type="matrix" values="0 0 0 0 0 0 0 0 0 0 0 0 0 0 0 0 0 0 127 0" result="hardAlpha"/>
<feOffset dx="-1" dy="3"/>
<feGaussianBlur stdDeviation="1"/>
<feColorMatrix type="matrix" values="0 0 0 0 0 0 0 0 0 0 0 0 0 0 0 0 0 0 0.05 0"/>
<feBlend mode="normal" in2="effect3_dropShadow_1_335" result="effect4_dropShadow_1_335"/>
<feColorMatrix in="SourceAlpha" type="matrix" values="0 0 0 0 0 0 0 0 0 0 0 0 0 0 0 0 0 0 127 0" result="hardAlpha"/>
<feOffset dx="-2" dy="6"/>
<feGaussianBlur stdDeviation="1"/>
<feColorMatrix type="matrix" values="0 0 0 0 0 0 0 0 0 0 0 0 0 0 0 0 0 0 0.01 0"/>
<feBlend mode="normal" in2="effect4_dropShadow_1_335" result="effect5_dropShadow_1_335"/>
<feBlend mode="normal" in="SourceGraphic" in2="effect5_dropShadow_1_335" result="shape"/>
</filter>
</defs>
</svg>
