<svg width="20" height="20" viewBox="0 0 20 20" fill="none" xmlns="http://www.w3.org/2000/svg">
<path d="M10.7477 17.7297C13.1573 17.2472 16.273 15.5136 16.273 11.0312C16.273 6.95272 13.2876 4.2363 11.14 2.98832C10.6644 2.71082 10.1063 3.07543 10.1063 3.62657V5.03566C10.1063 6.1472 9.6392 8.17603 8.34111 9.02009C7.6782 9.45099 6.96132 8.8058 6.88116 8.01955L6.81487 7.3736C6.73778 6.6228 5.97312 6.16724 5.37341 6.62512C4.29501 7.44605 3.16882 8.88751 3.16882 11.0304C3.16882 16.5118 7.24576 17.8831 9.28384 17.8831C9.40255 17.8831 9.52743 17.8785 9.65693 17.8716C8.65022 17.786 7.02299 17.1616 7.02299 15.1421C7.02299 13.5618 8.17539 12.4942 9.05105 11.9739C9.28693 11.8352 9.56212 12.0163 9.56212 12.29V12.7448C9.56212 13.0916 9.69701 13.6351 10.0169 14.0066C10.3792 14.4275 10.9103 13.9866 10.9527 13.4331C10.9666 13.2589 11.1423 13.1479 11.2934 13.2358C11.7875 13.5248 12.4188 14.1415 12.4188 15.1421C12.4188 16.7207 11.5486 17.4468 10.7477 17.7297Z" fill="white"/>
</svg>
