<svg width="56" height="54" viewBox="0 0 56 54" fill="none" xmlns="http://www.w3.org/2000/svg">
<path d="M27.8191 2.29938C14.004 2.29938 2.76355 13.5479 2.76355 27.3741C2.76355 41.1993 14.004 52.4479 27.8191 52.4479C41.6343 52.4479 52.8747 41.1993 52.8747 27.3741C52.8747 13.5479 41.6343 2.29938 27.8191 2.29938ZM27.8191 50.8476C14.8854 50.8476 4.36266 40.3172 4.36266 27.3741C4.36266 14.43 14.8854 3.89965 27.8191 3.89965C40.7529 3.89965 51.2756 14.43 51.2756 27.3741C51.2756 40.3172 40.7529 50.8476 27.8191 50.8476Z" fill="white"/>
<path d="M27.0196 10.1779H28.6188V14.2243H27.0196V10.1779Z" fill="white"/>
<path d="M40.9579 26.5745H45.0003V28.1748H40.9579V26.5745Z" fill="white"/>
<path d="M27.0196 40.5233H28.6188V44.5694H27.0196V40.5233Z" fill="white"/>
<path d="M10.637 26.5738H14.6794V28.1742H10.637V26.5738Z" fill="white"/>
<path d="M17.9636 18.6409L15.1047 15.7799L16.2354 14.6484L19.0943 17.5093L17.9636 18.6409Z" fill="white"/>
<path d="M37.9773 18.9995L36.8876 17.8286L39.8457 15.0707L40.9355 16.2416L37.9773 18.9995Z" fill="white"/>
<path d="M38.9453 40.5015L36.1894 37.5412L37.3595 36.4506L40.1154 39.4109L38.9453 40.5015Z" fill="white"/>
<path d="M15.7897 39.6789L14.6999 38.508L17.6581 35.7501L18.7479 36.921L15.7897 39.6789Z" fill="white"/>
<path d="M30.5853 23.474L27.819 26.243L22.3199 20.7395L21.1892 21.8714L26.688 27.3742L24.3991 29.6656L25.5298 30.7967L27.8191 28.5058L30.2854 30.9738L31.4161 29.8427L28.9498 27.3742L31.7165 24.606L30.5853 23.474Z" fill="white"/>
<path d="M27.8188 6.34583C16.2319 6.34583 6.80573 15.7793 6.80573 27.3741C6.80573 38.9685 16.232 48.4024 27.8188 48.4024C39.4047 48.4024 48.8318 38.969 48.8318 27.3741C48.8318 15.7788 39.4048 6.34583 27.8188 6.34583ZM27.8188 46.8022C17.1143 46.8022 8.40483 38.0864 8.40483 27.3741C8.40483 16.6609 17.1135 7.9461 27.8188 7.9461C38.5241 7.9461 47.2327 16.6611 47.2327 27.3741C47.2327 38.0864 38.5233 46.8022 27.8188 46.8022Z" fill="white"/>
</svg>
